<?xml version="1.0" encoding="UTF-8"?>
<svg xmlns="http://www.w3.org/2000/svg" xmlns:xlink="http://www.w3.org/1999/xlink" viewBox="0 0 256 256" width="256px" height="256px">
<g id="surface46876799">
<path style=" stroke:none;fill-rule:nonzero;fill:rgb(23.529412%,52.941179%,22.745098%);fill-opacity:1;" d="M 127.953125 24 C 125.03125 24 122.113281 24.714844 119.59375 26.15625 L 40.3125 71.921875 C 35.191406 74.882812 32 80.484375 32 86.40625 L 32 169.4375 C 32 175.4375 35.191406 180.960938 40.3125 183.921875 L 61.125 195.921875 C 71.203125 200.882812 74.800781 200.875 79.359375 200.875 C 94.320312 200.875 102.875 191.835938 102.875 176.15625 L 102.875 90.484375 C 102.875 89.203125 101.84375 88.15625 100.5625 88.15625 L 90.5625 88.15625 C 89.203125 88.15625 88.234375 89.203125 88.234375 90.484375 L 88.234375 176.078125 C 88.234375 183.117188 80.964844 189.996094 69.203125 184.15625 L 47.4375 171.59375 C 46.636719 171.195312 46.15625 170.316406 46.15625 169.4375 L 46.15625 86.484375 C 46.15625 85.523438 46.636719 84.714844 47.4375 84.234375 L 126.71875 38.484375 C 127.4375 38.003906 128.402344 38.003906 129.203125 38.484375 L 208.484375 84.234375 C 209.285156 84.714844 209.765625 85.527344 209.765625 86.40625 L 209.765625 169.4375 C 209.765625 170.316406 209.28125 171.195312 208.5625 171.59375 L 129.203125 217.4375 C 128.484375 217.835938 127.4375 217.835938 126.71875 217.4375 L 106.3125 205.359375 C 105.753906 204.960938 104.964844 204.882812 104.40625 205.203125 C 98.726562 208.402344 97.6875 208.800781 92.40625 210.640625 C 91.125 211.039062 89.125 211.839844 93.125 214.078125 L 119.59375 229.765625 C 122.152344 231.207031 125.042969 232 127.921875 232 C 130.882812 232 133.753906 231.207031 136.3125 229.765625 L 215.6875 183.921875 C 220.808594 180.960938 224 175.4375 224 169.4375 L 224 86.484375 C 224 80.484375 220.808594 74.960938 215.6875 72 L 136.3125 26.15625 C 133.792969 24.714844 130.875 24 127.953125 24 Z M 149.28125 88.046875 C 126.640625 88.046875 113.125 97.640625 113.125 113.640625 C 113.125 131 126.550781 135.792969 148.3125 137.953125 C 174.3125 140.511719 176.3125 144.363281 176.3125 149.484375 C 176.3125 158.285156 169.203125 162.046875 152.484375 162.046875 C 131.445312 162.046875 126.800781 156.757812 125.28125 146.359375 C 125.121094 145.238281 124.167969 144.4375 123.046875 144.4375 L 112.71875 144.4375 C 111.4375 144.4375 110.484375 145.488281 110.484375 146.6875 C 110.484375 160.046875 117.765625 175.953125 152.484375 175.953125 C 177.605469 175.953125 192 166.046875 192 148.765625 C 192 131.644531 180.398438 127.078125 156.078125 123.796875 C 131.359375 120.597656 128.875 118.917969 128.875 113.15625 C 128.875 108.355469 131.042969 102.046875 149.28125 102.046875 C 165.519531 102.046875 171.597656 105.554688 174.078125 116.515625 C 174.316406 117.554688 175.191406 118.359375 176.3125 118.359375 L 186.640625 118.359375 C 187.28125 118.359375 187.832031 118.042969 188.3125 117.5625 C 188.710938 117.164062 188.953125 116.515625 188.875 115.796875 C 187.273438 96.917969 174.722656 88.046875 149.28125 88.046875 Z M 149.28125 88.046875 "/>
</g>
</svg>
